<svg width="995" height="995" viewBox="0 0 995 995" fill="none" xmlns="http://www.w3.org/2000/svg">
<circle cx="37.5" cy="37.5" r="2.5" fill="#4DABF7"/>
<circle cx="37.5" cy="517.5" r="2.5" fill="#4DABF7"/>
<circle cx="37.5" cy="277.5" r="2.5" fill="#4DABF7"/>
<circle cx="37.5" cy="757.5" r="2.5" fill="#4DABF7"/>
<circle cx="37.5" cy="157.5" r="2.5" fill="#4DABF7"/>
<circle cx="37.5" cy="637.5" r="2.5" fill="#4DABF7"/>
<circle cx="37.5" cy="397.5" r="2.5" fill="#4DABF7"/>
<circle cx="37.5" cy="877.5" r="2.5" fill="#4DABF7"/>
<circle cx="517.5" cy="37.5" r="2.5" fill="#4DABF7"/>
<circle cx="517.5" cy="517.5" r="2.5" fill="#4DABF7"/>
<circle cx="517.5" cy="277.5" r="2.5" fill="#4DABF7"/>
<circle cx="517.5" cy="757.5" r="2.5" fill="#4DABF7"/>
<circle cx="517.5" cy="157.5" r="2.5" fill="#4DABF7"/>
<circle cx="517.5" cy="637.5" r="2.5" fill="#4DABF7"/>
<circle cx="517.5" cy="397.5" r="2.5" fill="#4DABF7"/>
<circle cx="517.5" cy="877.5" r="2.5" fill="#4DABF7"/>
<circle cx="277.5" cy="37.5" r="2.5" fill="#4DABF7"/>
<circle cx="277.5" cy="517.5" r="2.5" fill="#4DABF7"/>
<circle cx="277.5" cy="277.5" r="2.5" fill="#4DABF7"/>
<circle cx="277.5" cy="757.5" r="2.5" fill="#4DABF7"/>
<circle cx="277.5" cy="157.5" r="2.5" fill="#4DABF7"/>
<circle cx="277.5" cy="637.5" r="2.5" fill="#4DABF7"/>
<circle cx="277.5" cy="397.5" r="2.5" fill="#4DABF7"/>
<circle cx="277.5" cy="877.5" r="2.5" fill="#4DABF7"/>
<circle cx="757.5" cy="37.5" r="2.5" fill="#4DABF7"/>
<circle cx="757.5" cy="517.5" r="2.5" fill="#4DABF7"/>
<circle cx="757.5" cy="277.5" r="2.5" fill="#4DABF7"/>
<circle cx="757.5" cy="757.5" r="2.5" fill="#4DABF7"/>
<circle cx="757.5" cy="157.5" r="2.5" fill="#4DABF7"/>
<circle cx="757.5" cy="637.5" r="2.5" fill="#4DABF7"/>
<circle cx="757.5" cy="397.5" r="2.5" fill="#4DABF7"/>
<circle cx="757.5" cy="877.5" r="2.5" fill="#4DABF7"/>
<circle cx="117.5" cy="37.5" r="2.5" fill="#4DABF7"/>
<circle cx="117.5" cy="517.5" r="2.5" fill="#4DABF7"/>
<circle cx="117.5" cy="277.5" r="2.5" fill="#4DABF7"/>
<circle cx="117.5" cy="757.5" r="2.5" fill="#4DABF7"/>
<circle cx="117.5" cy="157.5" r="2.5" fill="#4DABF7"/>
<circle cx="117.5" cy="637.5" r="2.5" fill="#4DABF7"/>
<circle cx="117.5" cy="397.5" r="2.5" fill="#4DABF7"/>
<circle cx="117.5" cy="877.5" r="2.5" fill="#4DABF7"/>
<circle cx="597.5" cy="37.5" r="2.5" fill="#4DABF7"/>
<circle cx="597.5" cy="517.5" r="2.5" fill="#4DABF7"/>
<circle cx="597.5" cy="277.5" r="2.5" fill="#4DABF7"/>
<circle cx="597.5" cy="757.5" r="2.5" fill="#4DABF7"/>
<circle cx="597.5" cy="157.5" r="2.5" fill="#4DABF7"/>
<circle cx="597.5" cy="637.5" r="2.5" fill="#4DABF7"/>
<circle cx="597.5" cy="397.5" r="2.5" fill="#4DABF7"/>
<circle cx="597.5" cy="877.5" r="2.5" fill="#4DABF7"/>
<circle cx="357.5" cy="37.5" r="2.5" fill="#4DABF7"/>
<circle cx="357.5" cy="517.5" r="2.5" fill="#4DABF7"/>
<circle cx="357.5" cy="277.5" r="2.5" fill="#4DABF7"/>
<circle cx="357.5" cy="757.5" r="2.5" fill="#4DABF7"/>
<circle cx="357.5" cy="157.5" r="2.5" fill="#4DABF7"/>
<circle cx="357.5" cy="637.5" r="2.5" fill="#4DABF7"/>
<circle cx="357.5" cy="397.5" r="2.5" fill="#4DABF7"/>
<circle cx="357.5" cy="877.5" r="2.5" fill="#4DABF7"/>
<circle cx="837.5" cy="37.5" r="2.5" fill="#4DABF7"/>
<circle cx="837.5" cy="517.5" r="2.5" fill="#4DABF7"/>
<circle cx="837.5" cy="277.5" r="2.5" fill="#4DABF7"/>
<circle cx="837.5" cy="757.5" r="2.5" fill="#4DABF7"/>
<circle cx="837.5" cy="157.5" r="2.5" fill="#4DABF7"/>
<circle cx="837.5" cy="637.5" r="2.5" fill="#4DABF7"/>
<circle cx="837.5" cy="397.5" r="2.5" fill="#4DABF7"/>
<circle cx="837.5" cy="877.5" r="2.5" fill="#4DABF7"/>
<circle cx="197.5" cy="37.5" r="2.5" fill="#4DABF7"/>
<circle cx="197.5" cy="517.5" r="2.5" fill="#4DABF7"/>
<circle cx="197.5" cy="277.5" r="2.5" fill="#4DABF7"/>
<circle cx="197.5" cy="757.5" r="2.5" fill="#4DABF7"/>
<circle cx="197.5" cy="157.5" r="2.5" fill="#4DABF7"/>
<circle cx="197.5" cy="637.5" r="2.5" fill="#4DABF7"/>
<circle cx="197.5" cy="397.5" r="2.5" fill="#4DABF7"/>
<circle cx="197.5" cy="877.5" r="2.5" fill="#4DABF7"/>
<circle cx="677.5" cy="37.5" r="2.5" fill="#4DABF7"/>
<circle cx="677.5" cy="517.5" r="2.5" fill="#4DABF7"/>
<circle cx="677.5" cy="277.5" r="2.5" fill="#4DABF7"/>
<circle cx="677.5" cy="757.5" r="2.5" fill="#4DABF7"/>
<circle cx="677.5" cy="157.5" r="2.5" fill="#4DABF7"/>
<circle cx="677.5" cy="637.5" r="2.5" fill="#4DABF7"/>
<circle cx="677.5" cy="397.5" r="2.5" fill="#4DABF7"/>
<circle cx="677.5" cy="877.5" r="2.5" fill="#4DABF7"/>
<circle cx="437.5" cy="37.5" r="2.5" fill="#4DABF7"/>
<circle cx="437.5" cy="517.5" r="2.5" fill="#4DABF7"/>
<circle cx="437.5" cy="277.5" r="2.5" fill="#4DABF7"/>
<circle cx="437.5" cy="757.5" r="2.5" fill="#4DABF7"/>
<circle cx="437.5" cy="157.5" r="2.5" fill="#4DABF7"/>
<circle cx="437.5" cy="637.5" r="2.5" fill="#4DABF7"/>
<circle cx="437.5" cy="397.5" r="2.5" fill="#4DABF7"/>
<circle cx="437.5" cy="877.5" r="2.5" fill="#4DABF7"/>
<circle cx="917.5" cy="37.5" r="2.5" fill="#4DABF7"/>
<circle cx="917.5" cy="517.5" r="2.5" fill="#4DABF7"/>
<circle cx="917.5" cy="277.5" r="2.5" fill="#4DABF7"/>
<circle cx="917.5" cy="757.5" r="2.5" fill="#4DABF7"/>
<circle cx="917.5" cy="157.5" r="2.5" fill="#4DABF7"/>
<circle cx="917.5" cy="637.5" r="2.5" fill="#4DABF7"/>
<circle cx="917.5" cy="397.5" r="2.5" fill="#4DABF7"/>
<circle cx="917.5" cy="877.5" r="2.5" fill="#4DABF7"/>
<circle cx="77.5" cy="37.5" r="2.5" fill="#4DABF7"/>
<circle cx="77.5" cy="517.5" r="2.5" fill="#4DABF7"/>
<circle cx="77.5" cy="277.5" r="2.5" fill="#4DABF7"/>
<circle cx="77.5" cy="757.5" r="2.5" fill="#4DABF7"/>
<circle cx="77.5" cy="157.5" r="2.5" fill="#4DABF7"/>
<circle cx="77.5" cy="637.5" r="2.5" fill="#4DABF7"/>
<circle cx="77.5" cy="397.5" r="2.5" fill="#4DABF7"/>
<circle cx="77.5" cy="877.5" r="2.5" fill="#4DABF7"/>
<circle cx="557.5" cy="37.5" r="2.5" fill="#4DABF7"/>
<circle cx="557.5" cy="517.5" r="2.5" fill="#4DABF7"/>
<circle cx="557.5" cy="277.5" r="2.5" fill="#4DABF7"/>
<circle cx="557.5" cy="757.5" r="2.5" fill="#4DABF7"/>
<circle cx="557.5" cy="157.5" r="2.5" fill="#4DABF7"/>
<circle cx="557.5" cy="637.5" r="2.5" fill="#4DABF7"/>
<circle cx="557.5" cy="397.5" r="2.5" fill="#4DABF7"/>
<circle cx="557.5" cy="877.5" r="2.5" fill="#4DABF7"/>
<circle cx="317.5" cy="37.5" r="2.5" fill="#4DABF7"/>
<circle cx="317.5" cy="517.5" r="2.5" fill="#4DABF7"/>
<circle cx="317.5" cy="277.5" r="2.5" fill="#4DABF7"/>
<circle cx="317.5" cy="757.5" r="2.5" fill="#4DABF7"/>
<circle cx="317.5" cy="157.5" r="2.5" fill="#4DABF7"/>
<circle cx="317.5" cy="637.5" r="2.5" fill="#4DABF7"/>
<circle cx="317.5" cy="397.5" r="2.5" fill="#4DABF7"/>
<circle cx="317.5" cy="877.5" r="2.5" fill="#4DABF7"/>
<circle cx="797.5" cy="37.5" r="2.5" fill="#4DABF7"/>
<circle cx="797.5" cy="517.5" r="2.5" fill="#4DABF7"/>
<circle cx="797.5" cy="277.5" r="2.5" fill="#4DABF7"/>
<circle cx="797.5" cy="757.5" r="2.5" fill="#4DABF7"/>
<circle cx="797.5" cy="157.5" r="2.5" fill="#4DABF7"/>
<circle cx="797.5" cy="637.5" r="2.5" fill="#4DABF7"/>
<circle cx="797.5" cy="397.5" r="2.5" fill="#4DABF7"/>
<circle cx="797.5" cy="877.5" r="2.5" fill="#4DABF7"/>
<circle cx="157.5" cy="37.5" r="2.5" fill="#4DABF7"/>
<circle cx="157.5" cy="517.5" r="2.5" fill="#4DABF7"/>
<circle cx="157.5" cy="277.5" r="2.5" fill="#4DABF7"/>
<circle cx="157.5" cy="757.5" r="2.5" fill="#4DABF7"/>
<circle cx="157.5" cy="157.5" r="2.5" fill="#4DABF7"/>
<circle cx="157.5" cy="637.5" r="2.5" fill="#4DABF7"/>
<circle cx="157.5" cy="397.5" r="2.5" fill="#4DABF7"/>
<circle cx="157.5" cy="877.5" r="2.5" fill="#4DABF7"/>
<circle cx="637.5" cy="37.5" r="2.5" fill="#4DABF7"/>
<circle cx="637.5" cy="517.5" r="2.5" fill="#4DABF7"/>
<circle cx="637.5" cy="277.5" r="2.5" fill="#4DABF7"/>
<circle cx="637.5" cy="757.5" r="2.5" fill="#4DABF7"/>
<circle cx="637.5" cy="157.5" r="2.5" fill="#4DABF7"/>
<circle cx="637.5" cy="637.5" r="2.5" fill="#4DABF7"/>
<circle cx="637.5" cy="397.5" r="2.5" fill="#4DABF7"/>
<circle cx="637.5" cy="877.5" r="2.5" fill="#4DABF7"/>
<circle cx="397.5" cy="37.5" r="2.5" fill="#4DABF7"/>
<circle cx="397.5" cy="517.5" r="2.5" fill="#4DABF7"/>
<circle cx="397.5" cy="277.5" r="2.5" fill="#4DABF7"/>
<circle cx="397.5" cy="757.5" r="2.5" fill="#4DABF7"/>
<circle cx="397.5" cy="157.5" r="2.5" fill="#4DABF7"/>
<circle cx="397.5" cy="637.5" r="2.5" fill="#4DABF7"/>
<circle cx="397.5" cy="397.5" r="2.5" fill="#4DABF7"/>
<circle cx="397.5" cy="877.5" r="2.5" fill="#4DABF7"/>
<circle cx="877.5" cy="37.5" r="2.5" fill="#4DABF7"/>
<circle cx="877.5" cy="517.5" r="2.5" fill="#4DABF7"/>
<circle cx="877.5" cy="277.5" r="2.5" fill="#4DABF7"/>
<circle cx="877.5" cy="757.5" r="2.5" fill="#4DABF7"/>
<circle cx="877.5" cy="157.5" r="2.5" fill="#4DABF7"/>
<circle cx="877.5" cy="637.5" r="2.5" fill="#4DABF7"/>
<circle cx="877.5" cy="397.5" r="2.5" fill="#4DABF7"/>
<circle cx="877.5" cy="877.5" r="2.5" fill="#4DABF7"/>
<circle cx="237.5" cy="37.5" r="2.5" fill="#4DABF7"/>
<circle cx="237.5" cy="517.5" r="2.5" fill="#4DABF7"/>
<circle cx="237.5" cy="277.5" r="2.5" fill="#4DABF7"/>
<circle cx="237.5" cy="757.5" r="2.5" fill="#4DABF7"/>
<circle cx="237.5" cy="157.5" r="2.5" fill="#4DABF7"/>
<circle cx="237.5" cy="637.5" r="2.5" fill="#4DABF7"/>
<circle cx="237.5" cy="397.5" r="2.5" fill="#4DABF7"/>
<circle cx="237.5" cy="877.5" r="2.5" fill="#4DABF7"/>
<circle cx="717.5" cy="37.5" r="2.5" fill="#4DABF7"/>
<circle cx="717.5" cy="517.5" r="2.5" fill="#4DABF7"/>
<circle cx="717.5" cy="277.5" r="2.5" fill="#4DABF7"/>
<circle cx="717.5" cy="757.5" r="2.5" fill="#4DABF7"/>
<circle cx="717.5" cy="157.5" r="2.5" fill="#4DABF7"/>
<circle cx="717.5" cy="637.5" r="2.5" fill="#4DABF7"/>
<circle cx="717.5" cy="397.5" r="2.5" fill="#4DABF7"/>
<circle cx="717.5" cy="877.5" r="2.5" fill="#4DABF7"/>
<circle cx="477.5" cy="37.5" r="2.5" fill="#4DABF7"/>
<circle cx="477.5" cy="517.5" r="2.5" fill="#4DABF7"/>
<circle cx="477.5" cy="277.5" r="2.5" fill="#4DABF7"/>
<circle cx="477.5" cy="757.5" r="2.5" fill="#4DABF7"/>
<circle cx="477.5" cy="157.5" r="2.5" fill="#4DABF7"/>
<circle cx="477.5" cy="637.5" r="2.5" fill="#4DABF7"/>
<circle cx="477.5" cy="397.5" r="2.5" fill="#4DABF7"/>
<circle cx="477.5" cy="877.5" r="2.5" fill="#4DABF7"/>
<circle cx="957.5" cy="37.5" r="2.5" fill="#4DABF7"/>
<circle cx="957.5" cy="517.5" r="2.5" fill="#4DABF7"/>
<circle cx="957.5" cy="277.5" r="2.5" fill="#4DABF7"/>
<circle cx="957.5" cy="757.5" r="2.5" fill="#4DABF7"/>
<circle cx="957.5" cy="157.5" r="2.5" fill="#4DABF7"/>
<circle cx="957.5" cy="637.5" r="2.5" fill="#4DABF7"/>
<circle cx="957.5" cy="397.5" r="2.5" fill="#4DABF7"/>
<circle cx="957.5" cy="877.5" r="2.5" fill="#4DABF7"/>
<circle cx="37.5" cy="77.5" r="2.5" fill="#4DABF7"/>
<circle cx="37.5" cy="557.5" r="2.5" fill="#4DABF7"/>
<circle cx="37.5" cy="317.5" r="2.5" fill="#4DABF7"/>
<circle cx="37.5" cy="797.5" r="2.5" fill="#4DABF7"/>
<circle cx="37.5" cy="197.5" r="2.5" fill="#4DABF7"/>
<circle cx="37.5" cy="677.5" r="2.5" fill="#4DABF7"/>
<circle cx="37.5" cy="437.5" r="2.5" fill="#4DABF7"/>
<circle cx="37.5" cy="917.5" r="2.5" fill="#4DABF7"/>
<circle cx="517.5" cy="77.5" r="2.5" fill="#4DABF7"/>
<circle cx="517.5" cy="557.5" r="2.5" fill="#4DABF7"/>
<circle cx="517.5" cy="317.5" r="2.5" fill="#4DABF7"/>
<circle cx="517.5" cy="797.5" r="2.5" fill="#4DABF7"/>
<circle cx="517.5" cy="197.5" r="2.5" fill="#4DABF7"/>
<circle cx="517.5" cy="677.5" r="2.5" fill="#4DABF7"/>
<circle cx="517.5" cy="437.5" r="2.5" fill="#4DABF7"/>
<circle cx="517.5" cy="917.5" r="2.5" fill="#4DABF7"/>
<circle cx="277.5" cy="77.5" r="2.5" fill="#4DABF7"/>
<circle cx="277.5" cy="557.5" r="2.5" fill="#4DABF7"/>
<circle cx="277.5" cy="317.5" r="2.5" fill="#4DABF7"/>
<circle cx="277.5" cy="797.5" r="2.5" fill="#4DABF7"/>
<circle cx="277.5" cy="197.5" r="2.5" fill="#4DABF7"/>
<circle cx="277.5" cy="677.5" r="2.5" fill="#4DABF7"/>
<circle cx="277.5" cy="437.5" r="2.5" fill="#4DABF7"/>
<circle cx="277.5" cy="917.5" r="2.5" fill="#4DABF7"/>
<circle cx="757.5" cy="77.5" r="2.5" fill="#4DABF7"/>
<circle cx="757.5" cy="557.5" r="2.5" fill="#4DABF7"/>
<circle cx="757.5" cy="317.5" r="2.5" fill="#4DABF7"/>
<circle cx="757.5" cy="797.5" r="2.5" fill="#4DABF7"/>
<circle cx="757.5" cy="197.5" r="2.5" fill="#4DABF7"/>
<circle cx="757.5" cy="677.5" r="2.5" fill="#4DABF7"/>
<circle cx="757.5" cy="437.5" r="2.5" fill="#4DABF7"/>
<circle cx="757.5" cy="917.5" r="2.5" fill="#4DABF7"/>
<circle cx="117.5" cy="77.5" r="2.5" fill="#4DABF7"/>
<circle cx="117.5" cy="557.5" r="2.5" fill="#4DABF7"/>
<circle cx="117.5" cy="317.5" r="2.5" fill="#4DABF7"/>
<circle cx="117.5" cy="797.5" r="2.5" fill="#4DABF7"/>
<circle cx="117.5" cy="197.5" r="2.5" fill="#4DABF7"/>
<circle cx="117.5" cy="677.5" r="2.5" fill="#4DABF7"/>
<circle cx="117.5" cy="437.5" r="2.5" fill="#4DABF7"/>
<circle cx="117.5" cy="917.5" r="2.5" fill="#4DABF7"/>
<circle cx="597.5" cy="77.5" r="2.5" fill="#4DABF7"/>
<circle cx="597.5" cy="557.5" r="2.5" fill="#4DABF7"/>
<circle cx="597.5" cy="317.5" r="2.5" fill="#4DABF7"/>
<circle cx="597.5" cy="797.5" r="2.5" fill="#4DABF7"/>
<circle cx="597.5" cy="197.5" r="2.5" fill="#4DABF7"/>
<circle cx="597.5" cy="677.5" r="2.5" fill="#4DABF7"/>
<circle cx="597.5" cy="437.5" r="2.5" fill="#4DABF7"/>
<circle cx="597.5" cy="917.5" r="2.5" fill="#4DABF7"/>
<circle cx="357.5" cy="77.5" r="2.5" fill="#4DABF7"/>
<circle cx="357.5" cy="557.5" r="2.5" fill="#4DABF7"/>
<circle cx="357.5" cy="317.5" r="2.5" fill="#4DABF7"/>
<circle cx="357.5" cy="797.5" r="2.5" fill="#4DABF7"/>
<circle cx="357.5" cy="197.5" r="2.5" fill="#4DABF7"/>
<circle cx="357.5" cy="677.5" r="2.5" fill="#4DABF7"/>
<circle cx="357.5" cy="437.5" r="2.5" fill="#4DABF7"/>
<circle cx="357.5" cy="917.5" r="2.5" fill="#4DABF7"/>
<circle cx="837.5" cy="77.5" r="2.5" fill="#4DABF7"/>
<circle cx="837.5" cy="557.5" r="2.5" fill="#4DABF7"/>
<circle cx="837.5" cy="317.5" r="2.5" fill="#4DABF7"/>
<circle cx="837.5" cy="797.5" r="2.5" fill="#4DABF7"/>
<circle cx="837.5" cy="197.5" r="2.5" fill="#4DABF7"/>
<circle cx="837.5" cy="677.5" r="2.5" fill="#4DABF7"/>
<circle cx="837.5" cy="437.5" r="2.5" fill="#4DABF7"/>
<circle cx="837.5" cy="917.5" r="2.5" fill="#4DABF7"/>
<circle cx="197.5" cy="77.5" r="2.5" fill="#4DABF7"/>
<circle cx="197.5" cy="557.5" r="2.5" fill="#4DABF7"/>
<circle cx="197.5" cy="317.5" r="2.5" fill="#4DABF7"/>
<circle cx="197.5" cy="797.5" r="2.5" fill="#4DABF7"/>
<circle cx="197.5" cy="197.5" r="2.5" fill="#4DABF7"/>
<circle cx="197.5" cy="677.5" r="2.5" fill="#4DABF7"/>
<circle cx="197.5" cy="437.5" r="2.5" fill="#4DABF7"/>
<circle cx="197.5" cy="917.5" r="2.5" fill="#4DABF7"/>
<circle cx="677.5" cy="77.5" r="2.5" fill="#4DABF7"/>
<circle cx="677.5" cy="557.5" r="2.5" fill="#4DABF7"/>
<circle cx="677.5" cy="317.5" r="2.5" fill="#4DABF7"/>
<circle cx="677.5" cy="797.5" r="2.5" fill="#4DABF7"/>
<circle cx="677.5" cy="197.5" r="2.5" fill="#4DABF7"/>
<circle cx="677.5" cy="677.5" r="2.5" fill="#4DABF7"/>
<circle cx="677.5" cy="437.5" r="2.5" fill="#4DABF7"/>
<circle cx="677.5" cy="917.5" r="2.5" fill="#4DABF7"/>
<circle cx="437.5" cy="77.5" r="2.5" fill="#4DABF7"/>
<circle cx="437.5" cy="557.5" r="2.5" fill="#4DABF7"/>
<circle cx="437.5" cy="317.5" r="2.5" fill="#4DABF7"/>
<circle cx="437.5" cy="797.5" r="2.5" fill="#4DABF7"/>
<circle cx="437.5" cy="197.5" r="2.5" fill="#4DABF7"/>
<circle cx="437.5" cy="677.5" r="2.5" fill="#4DABF7"/>
<circle cx="437.5" cy="437.5" r="2.5" fill="#4DABF7"/>
<circle cx="437.5" cy="917.5" r="2.5" fill="#4DABF7"/>
<circle cx="917.5" cy="77.5" r="2.5" fill="#4DABF7"/>
<circle cx="917.5" cy="557.5" r="2.5" fill="#4DABF7"/>
<circle cx="917.5" cy="317.5" r="2.5" fill="#4DABF7"/>
<circle cx="917.5" cy="797.5" r="2.5" fill="#4DABF7"/>
<circle cx="917.5" cy="197.5" r="2.5" fill="#4DABF7"/>
<circle cx="917.5" cy="677.5" r="2.5" fill="#4DABF7"/>
<circle cx="917.5" cy="437.5" r="2.5" fill="#4DABF7"/>
<circle cx="917.5" cy="917.5" r="2.5" fill="#4DABF7"/>
<circle cx="77.5" cy="77.5" r="2.5" fill="#4DABF7"/>
<circle cx="77.5" cy="557.5" r="2.5" fill="#4DABF7"/>
<circle cx="77.5" cy="317.5" r="2.5" fill="#4DABF7"/>
<circle cx="77.5" cy="797.5" r="2.5" fill="#4DABF7"/>
<circle cx="77.5" cy="197.5" r="2.5" fill="#4DABF7"/>
<circle cx="77.5" cy="677.5" r="2.5" fill="#4DABF7"/>
<circle cx="77.5" cy="437.5" r="2.5" fill="#4DABF7"/>
<circle cx="77.5" cy="917.5" r="2.5" fill="#4DABF7"/>
<circle cx="557.5" cy="77.5" r="2.5" fill="#4DABF7"/>
<circle cx="557.5" cy="557.5" r="2.5" fill="#4DABF7"/>
<circle cx="557.5" cy="317.5" r="2.5" fill="#4DABF7"/>
<circle cx="557.5" cy="797.5" r="2.5" fill="#4DABF7"/>
<circle cx="557.5" cy="197.5" r="2.5" fill="#4DABF7"/>
<circle cx="557.5" cy="677.5" r="2.5" fill="#4DABF7"/>
<circle cx="557.5" cy="437.5" r="2.5" fill="#4DABF7"/>
<circle cx="557.5" cy="917.5" r="2.5" fill="#4DABF7"/>
<circle cx="317.5" cy="77.5" r="2.5" fill="#4DABF7"/>
<circle cx="317.5" cy="557.5" r="2.5" fill="#4DABF7"/>
<circle cx="317.5" cy="317.5" r="2.5" fill="#4DABF7"/>
<circle cx="317.5" cy="797.5" r="2.5" fill="#4DABF7"/>
<circle cx="317.5" cy="197.5" r="2.5" fill="#4DABF7"/>
<circle cx="317.5" cy="677.5" r="2.5" fill="#4DABF7"/>
<circle cx="317.5" cy="437.5" r="2.5" fill="#4DABF7"/>
<circle cx="317.5" cy="917.5" r="2.5" fill="#4DABF7"/>
<circle cx="797.5" cy="77.5" r="2.5" fill="#4DABF7"/>
<circle cx="797.5" cy="557.5" r="2.5" fill="#4DABF7"/>
<circle cx="797.5" cy="317.5" r="2.5" fill="#4DABF7"/>
<circle cx="797.5" cy="797.5" r="2.5" fill="#4DABF7"/>
<circle cx="797.5" cy="197.5" r="2.5" fill="#4DABF7"/>
<circle cx="797.5" cy="677.5" r="2.5" fill="#4DABF7"/>
<circle cx="797.5" cy="437.5" r="2.5" fill="#4DABF7"/>
<circle cx="797.5" cy="917.5" r="2.5" fill="#4DABF7"/>
<circle cx="157.5" cy="77.5" r="2.5" fill="#4DABF7"/>
<circle cx="157.5" cy="557.5" r="2.5" fill="#4DABF7"/>
<circle cx="157.5" cy="317.5" r="2.5" fill="#4DABF7"/>
<circle cx="157.5" cy="797.5" r="2.5" fill="#4DABF7"/>
<circle cx="157.5" cy="197.5" r="2.5" fill="#4DABF7"/>
<circle cx="157.5" cy="677.5" r="2.5" fill="#4DABF7"/>
<circle cx="157.5" cy="437.5" r="2.5" fill="#4DABF7"/>
<circle cx="157.5" cy="917.5" r="2.5" fill="#4DABF7"/>
<circle cx="637.5" cy="77.5" r="2.5" fill="#4DABF7"/>
<circle cx="637.5" cy="557.5" r="2.5" fill="#4DABF7"/>
<circle cx="637.5" cy="317.5" r="2.5" fill="#4DABF7"/>
<circle cx="637.5" cy="797.5" r="2.5" fill="#4DABF7"/>
<circle cx="637.5" cy="197.5" r="2.5" fill="#4DABF7"/>
<circle cx="637.5" cy="677.5" r="2.5" fill="#4DABF7"/>
<circle cx="637.5" cy="437.5" r="2.5" fill="#4DABF7"/>
<circle cx="637.5" cy="917.5" r="2.5" fill="#4DABF7"/>
<circle cx="397.5" cy="77.5" r="2.5" fill="#4DABF7"/>
<circle cx="397.5" cy="557.5" r="2.5" fill="#4DABF7"/>
<circle cx="397.5" cy="317.5" r="2.5" fill="#4DABF7"/>
<circle cx="397.5" cy="797.5" r="2.5" fill="#4DABF7"/>
<circle cx="397.5" cy="197.5" r="2.5" fill="#4DABF7"/>
<circle cx="397.5" cy="677.5" r="2.5" fill="#4DABF7"/>
<circle cx="397.5" cy="437.5" r="2.5" fill="#4DABF7"/>
<circle cx="397.5" cy="917.5" r="2.5" fill="#4DABF7"/>
<circle cx="877.5" cy="77.5" r="2.5" fill="#4DABF7"/>
<circle cx="877.5" cy="557.5" r="2.5" fill="#4DABF7"/>
<circle cx="877.5" cy="317.5" r="2.5" fill="#4DABF7"/>
<circle cx="877.5" cy="797.5" r="2.5" fill="#4DABF7"/>
<circle cx="877.5" cy="197.5" r="2.5" fill="#4DABF7"/>
<circle cx="877.5" cy="677.5" r="2.5" fill="#4DABF7"/>
<circle cx="877.5" cy="437.5" r="2.5" fill="#4DABF7"/>
<circle cx="877.5" cy="917.5" r="2.5" fill="#4DABF7"/>
<circle cx="237.5" cy="77.5" r="2.5" fill="#4DABF7"/>
<circle cx="237.5" cy="557.5" r="2.5" fill="#4DABF7"/>
<circle cx="237.5" cy="317.5" r="2.5" fill="#4DABF7"/>
<circle cx="237.5" cy="797.5" r="2.5" fill="#4DABF7"/>
<circle cx="237.5" cy="197.5" r="2.5" fill="#4DABF7"/>
<circle cx="237.5" cy="677.5" r="2.5" fill="#4DABF7"/>
<circle cx="237.5" cy="437.5" r="2.5" fill="#4DABF7"/>
<circle cx="237.5" cy="917.5" r="2.5" fill="#4DABF7"/>
<circle cx="717.5" cy="77.5" r="2.5" fill="#4DABF7"/>
<circle cx="717.5" cy="557.5" r="2.5" fill="#4DABF7"/>
<circle cx="717.5" cy="317.5" r="2.5" fill="#4DABF7"/>
<circle cx="717.5" cy="797.5" r="2.5" fill="#4DABF7"/>
<circle cx="717.5" cy="197.5" r="2.5" fill="#4DABF7"/>
<circle cx="717.5" cy="677.5" r="2.5" fill="#4DABF7"/>
<circle cx="717.5" cy="437.5" r="2.5" fill="#4DABF7"/>
<circle cx="717.5" cy="917.5" r="2.5" fill="#4DABF7"/>
<circle cx="477.5" cy="77.5" r="2.5" fill="#4DABF7"/>
<circle cx="477.5" cy="557.5" r="2.5" fill="#4DABF7"/>
<circle cx="477.5" cy="317.5" r="2.5" fill="#4DABF7"/>
<circle cx="477.5" cy="797.5" r="2.5" fill="#4DABF7"/>
<circle cx="477.5" cy="197.5" r="2.5" fill="#4DABF7"/>
<circle cx="477.5" cy="677.5" r="2.5" fill="#4DABF7"/>
<circle cx="477.5" cy="437.5" r="2.5" fill="#4DABF7"/>
<circle cx="477.5" cy="917.5" r="2.5" fill="#4DABF7"/>
<circle cx="957.5" cy="77.5" r="2.5" fill="#4DABF7"/>
<circle cx="957.5" cy="557.5" r="2.5" fill="#4DABF7"/>
<circle cx="957.5" cy="317.5" r="2.5" fill="#4DABF7"/>
<circle cx="957.5" cy="797.5" r="2.5" fill="#4DABF7"/>
<circle cx="957.5" cy="197.5" r="2.5" fill="#4DABF7"/>
<circle cx="957.5" cy="677.5" r="2.5" fill="#4DABF7"/>
<circle cx="957.5" cy="437.5" r="2.5" fill="#4DABF7"/>
<circle cx="957.5" cy="917.5" r="2.5" fill="#4DABF7"/>
<circle cx="37.5" cy="117.5" r="2.5" fill="#4DABF7"/>
<circle cx="37.5" cy="597.5" r="2.5" fill="#4DABF7"/>
<circle cx="37.5" cy="357.5" r="2.5" fill="#4DABF7"/>
<circle cx="37.5" cy="837.5" r="2.5" fill="#4DABF7"/>
<circle cx="37.5" cy="237.5" r="2.5" fill="#4DABF7"/>
<circle cx="37.5" cy="717.5" r="2.5" fill="#4DABF7"/>
<circle cx="37.5" cy="477.5" r="2.5" fill="#4DABF7"/>
<circle cx="37.5" cy="957.5" r="2.5" fill="#4DABF7"/>
<circle cx="517.5" cy="117.5" r="2.5" fill="#4DABF7"/>
<circle cx="517.5" cy="597.5" r="2.5" fill="#4DABF7"/>
<circle cx="517.5" cy="357.5" r="2.5" fill="#4DABF7"/>
<circle cx="517.5" cy="837.5" r="2.5" fill="#4DABF7"/>
<circle cx="517.5" cy="237.5" r="2.5" fill="#4DABF7"/>
<circle cx="517.5" cy="717.5" r="2.5" fill="#4DABF7"/>
<circle cx="517.5" cy="477.5" r="2.5" fill="#4DABF7"/>
<circle cx="517.5" cy="957.5" r="2.5" fill="#4DABF7"/>
<circle cx="277.5" cy="117.5" r="2.5" fill="#4DABF7"/>
<circle cx="277.5" cy="597.5" r="2.5" fill="#4DABF7"/>
<circle cx="277.5" cy="357.5" r="2.5" fill="#4DABF7"/>
<circle cx="277.5" cy="837.5" r="2.5" fill="#4DABF7"/>
<circle cx="277.5" cy="237.5" r="2.5" fill="#4DABF7"/>
<circle cx="277.5" cy="717.5" r="2.5" fill="#4DABF7"/>
<circle cx="277.5" cy="477.5" r="2.5" fill="#4DABF7"/>
<circle cx="277.5" cy="957.5" r="2.5" fill="#4DABF7"/>
<circle cx="757.5" cy="117.5" r="2.5" fill="#4DABF7"/>
<circle cx="757.5" cy="597.5" r="2.5" fill="#4DABF7"/>
<circle cx="757.5" cy="357.5" r="2.5" fill="#4DABF7"/>
<circle cx="757.5" cy="837.5" r="2.5" fill="#4DABF7"/>
<circle cx="757.5" cy="237.5" r="2.5" fill="#4DABF7"/>
<circle cx="757.5" cy="717.5" r="2.5" fill="#4DABF7"/>
<circle cx="757.5" cy="477.5" r="2.5" fill="#4DABF7"/>
<circle cx="757.5" cy="957.5" r="2.5" fill="#4DABF7"/>
<circle cx="117.5" cy="117.5" r="2.5" fill="#4DABF7"/>
<circle cx="117.5" cy="597.5" r="2.5" fill="#4DABF7"/>
<circle cx="117.5" cy="357.5" r="2.5" fill="#4DABF7"/>
<circle cx="117.5" cy="837.5" r="2.5" fill="#4DABF7"/>
<circle cx="117.5" cy="237.5" r="2.5" fill="#4DABF7"/>
<circle cx="117.5" cy="717.5" r="2.5" fill="#4DABF7"/>
<circle cx="117.5" cy="477.5" r="2.5" fill="#4DABF7"/>
<circle cx="117.5" cy="957.5" r="2.5" fill="#4DABF7"/>
<circle cx="597.5" cy="117.5" r="2.5" fill="#4DABF7"/>
<circle cx="597.5" cy="597.5" r="2.5" fill="#4DABF7"/>
<circle cx="597.5" cy="357.5" r="2.5" fill="#4DABF7"/>
<circle cx="597.5" cy="837.5" r="2.5" fill="#4DABF7"/>
<circle cx="597.5" cy="237.5" r="2.5" fill="#4DABF7"/>
<circle cx="597.5" cy="717.5" r="2.5" fill="#4DABF7"/>
<circle cx="597.5" cy="477.5" r="2.5" fill="#4DABF7"/>
<circle cx="597.5" cy="957.5" r="2.5" fill="#4DABF7"/>
<circle cx="357.5" cy="117.5" r="2.5" fill="#4DABF7"/>
<circle cx="357.5" cy="597.5" r="2.5" fill="#4DABF7"/>
<circle cx="357.5" cy="357.5" r="2.5" fill="#4DABF7"/>
<circle cx="357.5" cy="837.5" r="2.5" fill="#4DABF7"/>
<circle cx="357.5" cy="237.5" r="2.5" fill="#4DABF7"/>
<circle cx="357.5" cy="717.5" r="2.5" fill="#4DABF7"/>
<circle cx="357.5" cy="477.5" r="2.5" fill="#4DABF7"/>
<circle cx="357.5" cy="957.5" r="2.5" fill="#4DABF7"/>
<circle cx="837.5" cy="117.5" r="2.5" fill="#4DABF7"/>
<circle cx="837.5" cy="597.5" r="2.5" fill="#4DABF7"/>
<circle cx="837.5" cy="357.5" r="2.5" fill="#4DABF7"/>
<circle cx="837.5" cy="837.5" r="2.5" fill="#4DABF7"/>
<circle cx="837.5" cy="237.5" r="2.5" fill="#4DABF7"/>
<circle cx="837.5" cy="717.5" r="2.5" fill="#4DABF7"/>
<circle cx="837.5" cy="477.5" r="2.5" fill="#4DABF7"/>
<circle cx="837.5" cy="957.5" r="2.5" fill="#4DABF7"/>
<circle cx="197.5" cy="117.5" r="2.5" fill="#4DABF7"/>
<circle cx="197.5" cy="597.5" r="2.5" fill="#4DABF7"/>
<circle cx="197.5" cy="357.5" r="2.5" fill="#4DABF7"/>
<circle cx="197.5" cy="837.5" r="2.5" fill="#4DABF7"/>
<circle cx="197.5" cy="237.5" r="2.5" fill="#4DABF7"/>
<circle cx="197.5" cy="717.5" r="2.5" fill="#4DABF7"/>
<circle cx="197.5" cy="477.5" r="2.5" fill="#4DABF7"/>
<circle cx="197.5" cy="957.5" r="2.5" fill="#4DABF7"/>
<circle cx="677.5" cy="117.5" r="2.5" fill="#4DABF7"/>
<circle cx="677.5" cy="597.5" r="2.5" fill="#4DABF7"/>
<circle cx="677.5" cy="357.5" r="2.5" fill="#4DABF7"/>
<circle cx="677.5" cy="837.5" r="2.5" fill="#4DABF7"/>
<circle cx="677.5" cy="237.5" r="2.5" fill="#4DABF7"/>
<circle cx="677.5" cy="717.5" r="2.5" fill="#4DABF7"/>
<circle cx="677.5" cy="477.5" r="2.5" fill="#4DABF7"/>
<circle cx="677.5" cy="957.5" r="2.5" fill="#4DABF7"/>
<circle cx="437.5" cy="117.5" r="2.5" fill="#4DABF7"/>
<circle cx="437.5" cy="597.5" r="2.5" fill="#4DABF7"/>
<circle cx="437.5" cy="357.5" r="2.5" fill="#4DABF7"/>
<circle cx="437.5" cy="837.5" r="2.5" fill="#4DABF7"/>
<circle cx="437.5" cy="237.5" r="2.5" fill="#4DABF7"/>
<circle cx="437.5" cy="717.5" r="2.5" fill="#4DABF7"/>
<circle cx="437.5" cy="477.5" r="2.5" fill="#4DABF7"/>
<circle cx="437.5" cy="957.5" r="2.5" fill="#4DABF7"/>
<circle cx="917.5" cy="117.5" r="2.5" fill="#4DABF7"/>
<circle cx="917.5" cy="597.5" r="2.5" fill="#4DABF7"/>
<circle cx="917.5" cy="357.5" r="2.5" fill="#4DABF7"/>
<circle cx="917.5" cy="837.5" r="2.5" fill="#4DABF7"/>
<circle cx="917.5" cy="237.5" r="2.5" fill="#4DABF7"/>
<circle cx="917.5" cy="717.5" r="2.5" fill="#4DABF7"/>
<circle cx="917.5" cy="477.5" r="2.5" fill="#4DABF7"/>
<circle cx="917.5" cy="957.5" r="2.5" fill="#4DABF7"/>
<circle cx="77.5" cy="117.5" r="2.5" fill="#4DABF7"/>
<circle cx="77.5" cy="597.5" r="2.5" fill="#4DABF7"/>
<circle cx="77.5" cy="357.5" r="2.5" fill="#4DABF7"/>
<circle cx="77.5" cy="837.5" r="2.5" fill="#4DABF7"/>
<circle cx="77.5" cy="237.5" r="2.5" fill="#4DABF7"/>
<circle cx="77.5" cy="717.5" r="2.5" fill="#4DABF7"/>
<circle cx="77.5" cy="477.5" r="2.5" fill="#4DABF7"/>
<circle cx="77.5" cy="957.5" r="2.5" fill="#4DABF7"/>
<circle cx="557.5" cy="117.5" r="2.5" fill="#4DABF7"/>
<circle cx="557.5" cy="597.5" r="2.5" fill="#4DABF7"/>
<circle cx="557.5" cy="357.5" r="2.5" fill="#4DABF7"/>
<circle cx="557.5" cy="837.5" r="2.5" fill="#4DABF7"/>
<circle cx="557.5" cy="237.5" r="2.5" fill="#4DABF7"/>
<circle cx="557.5" cy="717.5" r="2.5" fill="#4DABF7"/>
<circle cx="557.5" cy="477.5" r="2.5" fill="#4DABF7"/>
<circle cx="557.5" cy="957.5" r="2.5" fill="#4DABF7"/>
<circle cx="317.5" cy="117.5" r="2.5" fill="#4DABF7"/>
<circle cx="317.5" cy="597.5" r="2.5" fill="#4DABF7"/>
<circle cx="317.5" cy="357.5" r="2.5" fill="#4DABF7"/>
<circle cx="317.5" cy="837.5" r="2.5" fill="#4DABF7"/>
<circle cx="317.5" cy="237.5" r="2.5" fill="#4DABF7"/>
<circle cx="317.5" cy="717.5" r="2.5" fill="#4DABF7"/>
<circle cx="317.5" cy="477.5" r="2.5" fill="#4DABF7"/>
<circle cx="317.5" cy="957.5" r="2.5" fill="#4DABF7"/>
<circle cx="797.5" cy="117.5" r="2.5" fill="#4DABF7"/>
<circle cx="797.5" cy="597.5" r="2.5" fill="#4DABF7"/>
<circle cx="797.5" cy="357.5" r="2.5" fill="#4DABF7"/>
<circle cx="797.5" cy="837.5" r="2.5" fill="#4DABF7"/>
<circle cx="797.5" cy="237.5" r="2.5" fill="#4DABF7"/>
<circle cx="797.5" cy="717.5" r="2.5" fill="#4DABF7"/>
<circle cx="797.5" cy="477.5" r="2.5" fill="#4DABF7"/>
<circle cx="797.5" cy="957.5" r="2.5" fill="#4DABF7"/>
<circle cx="157.5" cy="117.5" r="2.5" fill="#4DABF7"/>
<circle cx="157.5" cy="597.5" r="2.5" fill="#4DABF7"/>
<circle cx="157.5" cy="357.5" r="2.5" fill="#4DABF7"/>
<circle cx="157.5" cy="837.5" r="2.5" fill="#4DABF7"/>
<circle cx="157.5" cy="237.5" r="2.5" fill="#4DABF7"/>
<circle cx="157.5" cy="717.5" r="2.5" fill="#4DABF7"/>
<circle cx="157.5" cy="477.5" r="2.5" fill="#4DABF7"/>
<circle cx="157.5" cy="957.5" r="2.5" fill="#4DABF7"/>
<circle cx="637.5" cy="117.5" r="2.5" fill="#4DABF7"/>
<circle cx="637.5" cy="597.5" r="2.5" fill="#4DABF7"/>
<circle cx="637.5" cy="357.5" r="2.5" fill="#4DABF7"/>
<circle cx="637.5" cy="837.5" r="2.5" fill="#4DABF7"/>
<circle cx="637.5" cy="237.5" r="2.5" fill="#4DABF7"/>
<circle cx="637.5" cy="717.5" r="2.5" fill="#4DABF7"/>
<circle cx="637.5" cy="477.5" r="2.5" fill="#4DABF7"/>
<circle cx="637.5" cy="957.5" r="2.5" fill="#4DABF7"/>
<circle cx="397.5" cy="117.5" r="2.5" fill="#4DABF7"/>
<circle cx="397.5" cy="597.5" r="2.5" fill="#4DABF7"/>
<circle cx="397.5" cy="357.5" r="2.5" fill="#4DABF7"/>
<circle cx="397.5" cy="837.5" r="2.5" fill="#4DABF7"/>
<circle cx="397.5" cy="237.5" r="2.5" fill="#4DABF7"/>
<circle cx="397.5" cy="717.5" r="2.5" fill="#4DABF7"/>
<circle cx="397.5" cy="477.5" r="2.5" fill="#4DABF7"/>
<circle cx="397.5" cy="957.5" r="2.5" fill="#4DABF7"/>
<circle cx="877.5" cy="117.5" r="2.5" fill="#4DABF7"/>
<circle cx="877.5" cy="597.5" r="2.5" fill="#4DABF7"/>
<circle cx="877.5" cy="357.5" r="2.5" fill="#4DABF7"/>
<circle cx="877.5" cy="837.5" r="2.5" fill="#4DABF7"/>
<circle cx="877.5" cy="237.5" r="2.5" fill="#4DABF7"/>
<circle cx="877.5" cy="717.5" r="2.5" fill="#4DABF7"/>
<circle cx="877.5" cy="477.5" r="2.5" fill="#4DABF7"/>
<circle cx="877.5" cy="957.5" r="2.5" fill="#4DABF7"/>
<circle cx="237.5" cy="117.5" r="2.5" fill="#4DABF7"/>
<circle cx="237.5" cy="597.5" r="2.5" fill="#4DABF7"/>
<circle cx="237.5" cy="357.5" r="2.5" fill="#4DABF7"/>
<circle cx="237.5" cy="837.5" r="2.5" fill="#4DABF7"/>
<circle cx="237.5" cy="237.5" r="2.5" fill="#4DABF7"/>
<circle cx="237.5" cy="717.5" r="2.5" fill="#4DABF7"/>
<circle cx="237.5" cy="477.5" r="2.5" fill="#4DABF7"/>
<circle cx="237.5" cy="957.5" r="2.5" fill="#4DABF7"/>
<circle cx="717.5" cy="117.5" r="2.5" fill="#4DABF7"/>
<circle cx="717.5" cy="597.5" r="2.5" fill="#4DABF7"/>
<circle cx="717.5" cy="357.5" r="2.5" fill="#4DABF7"/>
<circle cx="717.5" cy="837.5" r="2.5" fill="#4DABF7"/>
<circle cx="717.5" cy="237.5" r="2.5" fill="#4DABF7"/>
<circle cx="717.5" cy="717.5" r="2.5" fill="#4DABF7"/>
<circle cx="717.5" cy="477.5" r="2.5" fill="#4DABF7"/>
<circle cx="717.5" cy="957.5" r="2.5" fill="#4DABF7"/>
<circle cx="477.5" cy="117.5" r="2.5" fill="#4DABF7"/>
<circle cx="477.5" cy="597.5" r="2.5" fill="#4DABF7"/>
<circle cx="477.5" cy="357.5" r="2.5" fill="#4DABF7"/>
<circle cx="477.5" cy="837.5" r="2.5" fill="#4DABF7"/>
<circle cx="477.5" cy="237.5" r="2.5" fill="#4DABF7"/>
<circle cx="477.5" cy="717.5" r="2.5" fill="#4DABF7"/>
<circle cx="477.5" cy="477.5" r="2.5" fill="#4DABF7"/>
<circle cx="477.5" cy="957.5" r="2.5" fill="#4DABF7"/>
<circle cx="957.5" cy="117.5" r="2.5" fill="#4DABF7"/>
<circle cx="957.5" cy="597.5" r="2.5" fill="#4DABF7"/>
<circle cx="957.5" cy="357.5" r="2.5" fill="#4DABF7"/>
<circle cx="957.5" cy="837.5" r="2.5" fill="#4DABF7"/>
<circle cx="957.5" cy="237.5" r="2.5" fill="#4DABF7"/>
<circle cx="957.5" cy="717.5" r="2.5" fill="#4DABF7"/>
<circle cx="957.5" cy="477.5" r="2.5" fill="#4DABF7"/>
<circle cx="957.5" cy="957.5" r="2.5" fill="#4DABF7"/>
</svg>
