<svg width="1024" height="1024" viewBox="0 0 1024 1024" fill="none" xmlns="http://www.w3.org/2000/svg">
<path d="M958.14 222.7C957.692 215.548 954.857 208.754 950.088 203.405C945.32 198.056 938.894 194.462 931.84 193.2C759.78 162.36 687.38 138.24 532 68.32C516.48 62.54 506.86 62.64 492 68.32C336.62 138.32 264.22 162.32 92.16 193.2C85.1062 194.462 78.6803 198.056 73.9117 203.405C69.1431 208.754 66.3078 215.548 65.86 222.7C58.16 344.9 74.54 458.7 114.58 561C147.32 644.419 195.824 720.75 257.44 785.82C346.78 880.68 445.84 936.06 496.92 957.02C506.606 960.972 517.454 960.972 527.14 957.02C581.14 935.18 676.52 881.38 766.56 785.78C828.172 720.722 876.675 644.405 909.42 561C949.46 458.72 965.84 344.9 958.14 222.7V222.7Z" fill="#4DABF7"/>
<path d="M603 460H590V395C590 374.313 581.782 354.474 567.154 339.846C552.527 325.218 532.687 317 512 317C491.313 317 471.474 325.218 456.846 339.846C442.218 354.474 434 374.313 434 395V460H421C407.213 460.015 393.996 465.498 384.247 475.247C374.498 484.996 369.015 498.213 369 512V655C369.015 668.787 374.498 682.004 384.247 691.753C393.996 701.502 407.213 706.985 421 707H603C616.787 706.985 630.004 701.502 639.753 691.753C649.502 682.004 654.985 668.787 655 655V512C654.985 498.213 649.502 484.996 639.753 475.247C630.004 465.498 616.787 460.015 603 460V460ZM564 460H460V395C460 381.209 465.479 367.982 475.23 358.23C484.982 348.479 498.209 343 512 343C525.791 343 539.018 348.479 548.77 358.23C558.521 367.982 564 381.209 564 395V460Z" fill="#1A1B1E"/>
</svg>
